<?xml version="1.0" encoding="UTF-8"?>
<svg id="_图层_1" data-name="图层_1" xmlns="http://www.w3.org/2000/svg" viewBox="0 0 171.91 25.29">
  <defs>
    <style>
      .cls-1 {
        fill: #fff;
      }
    </style>
  </defs>
  <path class="cls-1" d="M6.32,19c-.65-1.98-1.01-4.09-1.01-6.28s.36-4.2.98-6.15l-.02.12.13-.39c.31-1.16,1.39-2.01,2.69-2.01h12.21S21.3.01,21.3.01h-13.16C4.86.01,2.11,2.1,1.2,4.98c-.77,2.41-1.2,4.98-1.2,7.63s.46,5.45,1.29,7.96l-.04-.08c.97,2.79,3.7,4.8,6.9,4.8h-.28,13.45v-4.29h-12.28c-1.25,0-2.29-.79-2.65-1.88l-.07-.12h0Z"/>
  <path class="cls-1" d="M163.77.01c3.28,0,6.03,2.09,6.93,4.97.77,2.41,1.2,4.98,1.2,7.63s-.46,5.45-1.29,7.96l.04-.08c-.97,2.79-3.7,4.8-6.9,4.8h-8.7c-3.21,0-5.93-2.01-6.9-4.8l.04.08c-.83-2.51-1.29-5.18-1.29-7.96s.44-5.22,1.2-7.63c.91-2.88,3.66-4.97,6.93-4.97h8.74ZM162.86,21c1.25,0,2.29-.79,2.65-1.88l.07-.12c.65-1.98,1.01-4.09,1.01-6.28s-.36-4.2-.98-6.15l-.11-.27c-.31-1.16-1.39-2.01-2.69-2.01h-6.84c-1.29,0-2.38.85-2.69,2.01l-.11.27c-.62,1.94-.98,4.01-.98,6.15s.36,4.3,1.01,6.28l.07.12c.36,1.09,1.4,1.88,2.65,1.88h6.93Z"/>
  <path class="cls-1" d="M57.02,14.67h15.83v-4.29h-15.79c.16-1.32.44-2.59.83-3.82l-.02.12.13-.39c.31-1.16,1.39-2.01,2.69-2.01h12.21S72.91.01,72.91.01h-13.16c-3.28,0-6.03,2.09-6.93,4.97-.77,2.41-1.2,4.98-1.2,7.63s.46,5.45,1.29,7.96l-.04-.08c.97,2.79,3.7,4.8,6.9,4.8h-.28,13.45v-4.29h-12.28c-1.25,0-2.29-.79-2.65-1.88l-.07-.12c-.46-1.4-.76-2.81-.9-4.32h0Z"/>
  <path class="cls-1" d="M81.07,14.67h15.83v-4.29h-15.79c.16-1.32.44-2.59.83-3.82l-.02.12.13-.39c.31-1.16,1.39-2.01,2.69-2.01h12.21S96.96.01,96.96.01h-13.16c-3.28,0-6.03,2.09-6.93,4.97-.77,2.41-1.2,4.98-1.2,7.63s.46,5.45,1.29,7.96l-.04-.08c.97,2.79,3.7,4.8,6.9,4.8h-.28,13.45v-4.29h-12.28c-1.25,0-2.29-.79-2.65-1.88l-.07-.12c-.46-1.4-.76-2.81-.9-4.32h0Z"/>
  <polygon class="cls-1" points="30.2 14.39 30.21 25.29 24.79 25.29 24.79 0 30.21 0 30.21 10.13 42.77 10.14 42.77 0 48.19 0 48.19 25.29 42.77 25.29 42.78 14.42 30.2 14.39 30.2 14.39"/>
  <path class="cls-1" d="M106.09,7.15c0-1.56,1.3-2.83,2.92-2.83h2.99V.03h-4.16c-3.94,0-7.13,3.09-7.13,6.9l-.02,18.36h5.41V7.15h0Z"/>
  <path class="cls-1" d="M143.79,0v25.29h-5.42V4.36l-6.66.02.02,20.91h-5.42V4.31l-4.29.02c-1.61,0-2.92,1.27-2.92,2.83l-.02,18.14h-5.42l.02-18.36c0-3.81,3.19-6.9,7.13-6.9,0,0,22.98-.02,22.97-.02h0Z"/>
</svg>